<svg width="30" height="30" viewBox="0 0 30 30" fill="none" xmlns="http://www.w3.org/2000/svg">
<path d="M16.7883 2.39531C16.6313 2.39765 16.4836 2.46328 16.3758 2.57578L3.95157 15L16.3758 27.4242C16.5258 27.5812 16.7508 27.6445 16.9594 27.5883C17.1703 27.5344 17.3344 27.3703 17.3883 27.1594C17.4445 26.9508 17.3813 26.7258 17.2242 26.5758L5.64844 15L17.2242 3.42422C17.4024 3.25078 17.4539 2.98828 17.3578 2.76094C17.2617 2.53125 17.0367 2.38594 16.7883 2.39531ZM24.5883 2.39531C24.4313 2.39765 24.2836 2.46328 24.1758 2.57578L11.7516 15L24.1758 27.4242C24.3258 27.5812 24.5508 27.6445 24.7594 27.5883C24.9703 27.5344 25.1344 27.3703 25.1883 27.1594C25.2445 26.9508 25.1813 26.7258 25.0242 26.5758L13.4484 15L25.0242 3.42422C25.2024 3.25078 25.2539 2.98828 25.1578 2.76094C25.0617 2.53125 24.8367 2.38594 24.5883 2.39531Z" fill="#838383"/>
</svg>
