<svg width="186" height="50" viewBox="0 0 186 50" fill="none" xmlns="http://www.w3.org/2000/svg">
<path d="M35.4453 2.01172C35.0568 2.02535 34.6693 2.1266 34.3223 2.3086C35.2273 2.7566 35.8657 3.64141 35.9707 4.69141C35.9887 4.81741 36 4.93228 36 4.98828V44.9883C36 46.1743 35.3066 47.1907 34.3086 47.6777C34.6726 47.8767 35.079 47.9883 35.5 47.9883C35.873 47.9883 36.225 47.9019 36.543 47.7559L36.5449 47.7598C38.1529 46.9278 46.1923 42.7647 46.4883 42.5957C47.4213 42.0607 48 41.0613 48 39.9883V9.98829C48 8.99029 47.5057 8.06191 46.6777 7.50391C46.3577 7.28691 36.582 2.23633 36.582 2.23633L36.5801 2.24024C36.2241 2.07274 35.8338 1.9981 35.4453 2.01172ZM33 3.98828C32.7441 3.98828 32.488 4.08575 32.293 4.28125C32.293 4.28125 26.5685 10.7188 20.2305 17.8398L27.7246 23.9707L34 18.6856V4.98828C34 4.73228 33.902 4.47625 33.707 4.28125C33.5115 4.08575 33.2559 3.98828 33 3.98828ZM8 10.9883C7.844 10.9883 7.55386 10.9888 6.25586 11.5898C5.54086 11.9208 3.05078 13.2285 3.05078 13.2285C2.72078 13.4075 2.45458 13.6877 2.26758 14.0117C2.34358 13.9997 2.41905 13.9883 2.49805 13.9883H2.5C3.168 13.9883 3.57766 14.4545 3.72266 14.6055C3.72266 14.6055 31.93 45.3323 32.293 45.6953C32.488 45.8903 32.742 45.9883 32.998 45.9883C33.254 45.9883 33.5101 45.8903 33.7051 45.6953C33.9001 45.5003 34 45.2443 34 44.9883V31.6582C34 31.6582 9.53375 11.6618 9.34375 11.5078C8.97575 11.1738 8.497 10.9883 8 10.9883ZM2.19922 15.9883C2.08922 15.9883 2 16.0785 2 16.1895V34.7949C2 34.9019 2.08731 34.9902 2.19531 34.9902C2.25131 34.9902 2.30094 34.9648 2.33594 34.9258L8 28.6387V22.0078L2.3418 16.0469C2.3058 16.0109 2.25422 15.9883 2.19922 15.9883ZM12.2539 26.8027C12.2539 26.8027 3.65855 36.4528 3.56055 36.5508C3.28955 36.8218 2.915 36.9883 2.5 36.9883C2.422 36.9883 2.34648 36.9788 2.27148 36.9668C2.47348 37.3178 2.76972 37.6072 3.13672 37.7852L3.13281 37.791C4.00281 38.233 6.87395 39.6917 7.25195 39.8457C7.48995 39.9407 7.741 39.9883 8 39.9883C8.347 39.9883 8.69005 39.8987 8.99805 39.7227C9.02105 39.7097 17.5273 32.5527 17.5273 32.5527L12.2539 26.8027Z" fill="#FF3366"/>
<path d="M75.608 18.4L70.154 31H67.274L61.838 18.4H64.988L68.822 27.4L72.71 18.4H75.608ZM76.6378 21.316H79.4458V31H76.6378V21.316ZM78.0418 19.966C77.5258 19.966 77.1058 19.816 76.7818 19.516C76.4578 19.216 76.2958 18.844 76.2958 18.4C76.2958 17.956 76.4578 17.584 76.7818 17.284C77.1058 16.984 77.5258 16.834 78.0418 16.834C78.5578 16.834 78.9778 16.978 79.3018 17.266C79.6258 17.554 79.7878 17.914 79.7878 18.346C79.7878 18.814 79.6258 19.204 79.3018 19.516C78.9778 19.816 78.5578 19.966 78.0418 19.966ZM85.3099 31.144C84.5059 31.144 83.7199 31.048 82.9519 30.856C82.1839 30.652 81.5719 30.4 81.1159 30.1L82.0519 28.084C82.4839 28.36 83.0059 28.588 83.6179 28.768C84.2299 28.936 84.8299 29.02 85.4179 29.02C86.6059 29.02 87.1999 28.726 87.1999 28.138C87.1999 27.862 87.0379 27.664 86.7139 27.544C86.3899 27.424 85.8919 27.322 85.2199 27.238C84.4279 27.118 83.7739 26.98 83.2579 26.824C82.7419 26.668 82.2919 26.392 81.9079 25.996C81.5359 25.6 81.3499 25.036 81.3499 24.304C81.3499 23.692 81.5239 23.152 81.8719 22.684C82.2319 22.204 82.7479 21.832 83.4199 21.568C84.1039 21.304 84.9079 21.172 85.8319 21.172C86.5159 21.172 87.1939 21.25 87.8659 21.406C88.5499 21.55 89.1139 21.754 89.5579 22.018L88.6219 24.016C87.7699 23.536 86.8399 23.296 85.8319 23.296C85.2319 23.296 84.7819 23.38 84.4819 23.548C84.1819 23.716 84.0319 23.932 84.0319 24.196C84.0319 24.496 84.1939 24.706 84.5179 24.826C84.8419 24.946 85.3579 25.06 86.0659 25.168C86.8579 25.3 87.5059 25.444 88.0099 25.6C88.5139 25.744 88.9519 26.014 89.3239 26.41C89.6959 26.806 89.8819 27.358 89.8819 28.066C89.8819 28.666 89.7019 29.2 89.3419 29.668C88.9819 30.136 88.4539 30.502 87.7579 30.766C87.0739 31.018 86.2579 31.144 85.3099 31.144ZM101.37 21.316V31H98.7064V29.848C98.3344 30.268 97.8904 30.592 97.3744 30.82C96.8584 31.036 96.3004 31.144 95.7004 31.144C94.4284 31.144 93.4204 30.778 92.6764 30.046C91.9324 29.314 91.5604 28.228 91.5604 26.788V21.316H94.3684V26.374C94.3684 27.934 95.0224 28.714 96.3304 28.714C97.0024 28.714 97.5424 28.498 97.9504 28.066C98.3584 27.622 98.5624 26.968 98.5624 26.104V21.316H101.37ZM107.878 21.172C109.378 21.172 110.53 21.532 111.334 22.252C112.138 22.96 112.54 24.034 112.54 25.474V31H109.912V29.794C109.384 30.694 108.4 31.144 106.96 31.144C106.216 31.144 105.568 31.018 105.016 30.766C104.476 30.514 104.062 30.166 103.774 29.722C103.486 29.278 103.342 28.774 103.342 28.21C103.342 27.31 103.678 26.602 104.35 26.086C105.034 25.57 106.084 25.312 107.5 25.312H109.732C109.732 24.7 109.546 24.232 109.174 23.908C108.802 23.572 108.244 23.404 107.5 23.404C106.984 23.404 106.474 23.488 105.97 23.656C105.478 23.812 105.058 24.028 104.71 24.304L103.702 22.342C104.23 21.97 104.86 21.682 105.592 21.478C106.336 21.274 107.098 21.172 107.878 21.172ZM107.662 29.254C108.142 29.254 108.568 29.146 108.94 28.93C109.312 28.702 109.576 28.372 109.732 27.94V26.95H107.806C106.654 26.95 106.078 27.328 106.078 28.084C106.078 28.444 106.216 28.732 106.492 28.948C106.78 29.152 107.17 29.254 107.662 29.254ZM115.081 17.644H117.889V31H115.081V17.644ZM129.931 31.216C128.935 31.216 127.969 31.084 127.033 30.82C126.109 30.544 125.365 30.19 124.801 29.758L125.791 27.562C126.331 27.958 126.973 28.276 127.717 28.516C128.461 28.756 129.205 28.876 129.949 28.876C130.777 28.876 131.389 28.756 131.785 28.516C132.181 28.264 132.379 27.934 132.379 27.526C132.379 27.226 132.259 26.98 132.019 26.788C131.791 26.584 131.491 26.422 131.119 26.302C130.759 26.182 130.267 26.05 129.643 25.906C128.683 25.678 127.897 25.45 127.285 25.222C126.673 24.994 126.145 24.628 125.701 24.124C125.269 23.62 125.053 22.948 125.053 22.108C125.053 21.376 125.251 20.716 125.647 20.128C126.043 19.528 126.637 19.054 127.429 18.706C128.233 18.358 129.211 18.184 130.363 18.184C131.167 18.184 131.953 18.28 132.721 18.472C133.489 18.664 134.161 18.94 134.737 19.3L133.837 21.514C132.673 20.854 131.509 20.524 130.345 20.524C129.529 20.524 128.923 20.656 128.527 20.92C128.143 21.184 127.951 21.532 127.951 21.964C127.951 22.396 128.173 22.72 128.617 22.936C129.073 23.14 129.763 23.344 130.687 23.548C131.647 23.776 132.433 24.004 133.045 24.232C133.657 24.46 134.179 24.82 134.611 25.312C135.055 25.804 135.277 26.47 135.277 27.31C135.277 28.03 135.073 28.69 134.665 29.29C134.269 29.878 133.669 30.346 132.865 30.694C132.061 31.042 131.083 31.216 129.931 31.216ZM143.317 30.532C143.041 30.736 142.699 30.892 142.291 31C141.895 31.096 141.475 31.144 141.031 31.144C139.879 31.144 138.985 30.85 138.349 30.262C137.725 29.674 137.413 28.81 137.413 27.67V23.692H135.919V21.532H137.413V19.174H140.221V21.532H142.633V23.692H140.221V27.634C140.221 28.042 140.323 28.36 140.527 28.588C140.743 28.804 141.043 28.912 141.427 28.912C141.871 28.912 142.249 28.792 142.561 28.552L143.317 30.532ZM154.65 21.316V31H151.986V29.848C151.614 30.268 151.17 30.592 150.654 30.82C150.138 31.036 149.58 31.144 148.98 31.144C147.708 31.144 146.7 30.778 145.956 30.046C145.212 29.314 144.84 28.228 144.84 26.788V21.316H147.648V26.374C147.648 27.934 148.302 28.714 149.61 28.714C150.282 28.714 150.822 28.498 151.23 28.066C151.638 27.622 151.842 26.968 151.842 26.104V21.316H154.65ZM167.115 17.644V31H164.433V29.884C163.737 30.724 162.729 31.144 161.409 31.144C160.497 31.144 159.669 30.94 158.925 30.532C158.193 30.124 157.617 29.542 157.197 28.786C156.777 28.03 156.567 27.154 156.567 26.158C156.567 25.162 156.777 24.286 157.197 23.53C157.617 22.774 158.193 22.192 158.925 21.784C159.669 21.376 160.497 21.172 161.409 21.172C162.645 21.172 163.611 21.562 164.307 22.342V17.644H167.115ZM161.895 28.84C162.603 28.84 163.191 28.6 163.659 28.12C164.127 27.628 164.361 26.974 164.361 26.158C164.361 25.342 164.127 24.694 163.659 24.214C163.191 23.722 162.603 23.476 161.895 23.476C161.175 23.476 160.581 23.722 160.113 24.214C159.645 24.694 159.411 25.342 159.411 26.158C159.411 26.974 159.645 27.628 160.113 28.12C160.581 28.6 161.175 28.84 161.895 28.84ZM169.714 21.316H172.522V31H169.714V21.316ZM171.118 19.966C170.602 19.966 170.182 19.816 169.858 19.516C169.534 19.216 169.372 18.844 169.372 18.4C169.372 17.956 169.534 17.584 169.858 17.284C170.182 16.984 170.602 16.834 171.118 16.834C171.634 16.834 172.054 16.978 172.378 17.266C172.702 17.554 172.864 17.914 172.864 18.346C172.864 18.814 172.702 19.204 172.378 19.516C172.054 19.816 171.634 19.966 171.118 19.966ZM179.736 31.144C178.716 31.144 177.798 30.934 176.982 30.514C176.178 30.082 175.548 29.488 175.092 28.732C174.636 27.976 174.408 27.118 174.408 26.158C174.408 25.198 174.636 24.34 175.092 23.584C175.548 22.828 176.178 22.24 176.982 21.82C177.798 21.388 178.716 21.172 179.736 21.172C180.756 21.172 181.668 21.388 182.472 21.82C183.276 22.24 183.906 22.828 184.362 23.584C184.818 24.34 185.046 25.198 185.046 26.158C185.046 27.118 184.818 27.976 184.362 28.732C183.906 29.488 183.276 30.082 182.472 30.514C181.668 30.934 180.756 31.144 179.736 31.144ZM179.736 28.84C180.456 28.84 181.044 28.6 181.5 28.12C181.968 27.628 182.202 26.974 182.202 26.158C182.202 25.342 181.968 24.694 181.5 24.214C181.044 23.722 180.456 23.476 179.736 23.476C179.016 23.476 178.422 23.722 177.954 24.214C177.486 24.694 177.252 25.342 177.252 26.158C177.252 26.974 177.486 27.628 177.954 28.12C178.422 28.6 179.016 28.84 179.736 28.84Z" fill="black"/>
</svg>
