<svg width="30" height="30" viewBox="0 0 30 30" fill="none" xmlns="http://www.w3.org/2000/svg">
<path d="M13.2117 27.6047C13.3688 27.6023 13.5164 27.5367 13.6242 27.4242L26.0484 15L13.6242 2.57578C13.4742 2.41875 13.2492 2.35547 13.0406 2.41172C12.8297 2.46563 12.6656 2.62969 12.6117 2.84063C12.5555 3.04922 12.6187 3.27422 12.7758 3.42422L24.3516 15L12.7758 26.5758C12.5977 26.7492 12.5461 27.0117 12.6422 27.2391C12.7383 27.4688 12.9633 27.6141 13.2117 27.6047ZM5.41172 27.6047C5.56875 27.6023 5.71641 27.5367 5.82422 27.4242L18.2484 15L5.82422 2.57578C5.67422 2.41875 5.44922 2.35547 5.24062 2.41172C5.02969 2.46563 4.86562 2.62969 4.81172 2.84063C4.75547 3.04922 4.81875 3.27422 4.97578 3.42422L16.5516 15L4.97578 26.5758C4.79766 26.7492 4.74609 27.0117 4.84219 27.2391C4.93828 27.4688 5.16328 27.6141 5.41172 27.6047Z" fill="#838383"/>
</svg>
